<svg width="32" height="29" viewBox="0 0 32 29" fill="none" xmlns="http://www.w3.org/2000/svg">
<path d="M7.55094 28.5H1.02031V9.47201H7.55094V28.5ZM4.28211 6.87641C2.19383 6.87641 0.5 5.31142 0.5 3.42198C0.5 2.51442 0.898471 1.64402 1.60775 1.00228C2.31704 0.360529 3.27903 0 4.28211 0C5.28519 0 6.24718 0.360529 6.95646 1.00228C7.66575 1.64402 8.06422 2.51442 8.06422 3.42198C8.06422 5.31142 6.36969 6.87641 4.28211 6.87641ZM31.993 28.5H25.4764V19.2373C25.4764 17.0298 25.4272 14.1988 22.081 14.1988C18.6856 14.1988 18.1653 16.5972 18.1653 19.0782V28.5H11.6417V9.47201H17.9052V12.0676H17.9966C18.8684 10.5726 20.9982 8.99488 24.1756 8.99488C30.785 8.99488 32 12.9328 32 18.0476V28.5H31.993Z" fill="white"/>
</svg>
