<svg width="32" height="33" viewBox="0 0 32 33" fill="none" xmlns="http://www.w3.org/2000/svg">
<path d="M28.25 5.2865H3.75C3.6125 5.2865 3.5 5.399 3.5 5.5365V7.5365C3.5 7.674 3.6125 7.7865 3.75 7.7865H28.25C28.3875 7.7865 28.5 7.674 28.5 7.5365V5.5365C28.5 5.399 28.3875 5.2865 28.25 5.2865ZM28.25 24.7865H3.75C3.6125 24.7865 3.5 24.899 3.5 25.0365V27.0365C3.5 27.174 3.6125 27.2865 3.75 27.2865H28.25C28.3875 27.2865 28.5 27.174 28.5 27.0365V25.0365C28.5 24.899 28.3875 24.7865 28.25 24.7865ZM28.25 15.0365H3.75C3.6125 15.0365 3.5 15.149 3.5 15.2865V17.2865C3.5 17.424 3.6125 17.5365 3.75 17.5365H28.25C28.3875 17.5365 28.5 17.424 28.5 17.2865V15.2865C28.5 15.149 28.3875 15.0365 28.25 15.0365Z" fill="#242424"/>
</svg>
