<svg width="41" height="29" viewBox="0 0 41 29" fill="none" xmlns="http://www.w3.org/2000/svg">
<path d="M16.3125 12.7701C18.5484 11.5705 19.7156 9.75519 19.7156 6.92966C19.7156 1.35752 16.0172 0 11.7492 0H0V27.9712H12.0797C16.6078 27.9712 20.8617 25.5324 20.8617 19.8498C20.8617 16.3376 19.3781 13.7409 16.3125 12.7701ZM5.47734 4.77499H10.6172C12.593 4.77499 14.3719 5.3985 14.3719 7.97147C14.3719 10.3471 12.9867 11.3021 11.032 11.3021H5.47734V4.77499ZM11.3344 23.2199H5.47734V15.5168H11.4469C13.8586 15.5168 15.3844 16.6454 15.3844 19.5104C15.3844 22.3359 13.5633 23.2199 11.3344 23.2199ZM36.5414 4.22251H26.4375V1.46801H36.5414V4.22251ZM40.5 18.1371C40.5 12.1466 37.3781 7.15065 31.718 7.15065C26.2195 7.15065 22.4859 11.7915 22.4859 17.8687C22.4859 24.1749 26.0227 28.5 31.718 28.5C36.0281 28.5 38.8195 26.3217 40.1625 21.6887H35.7891C35.318 23.4172 33.3773 24.3327 31.8727 24.3327C28.9688 24.3327 27.443 22.4227 27.443 19.1789H40.4578C40.4789 18.8474 40.5 18.4922 40.5 18.1371ZM27.45 15.6746C27.6117 13.0148 29.1867 11.3495 31.5633 11.3495C34.0523 11.3495 35.3039 12.9911 35.5148 15.6746H27.45Z" fill="white"/>
</svg>
