<svg width="12" height="12" viewBox="0 0 12 12" fill="none" xmlns="http://www.w3.org/2000/svg">
<path fill-rule="evenodd" clip-rule="evenodd" d="M11.17 0.360004C11.3567 0.501489 11.4739 0.704565 11.4959 0.924588C11.5179 1.14461 11.4429 1.36357 11.2873 1.53334L7.19306 6L11.2873 10.4667C11.3678 10.5503 11.4291 10.6477 11.4676 10.7532C11.506 10.8587 11.5209 10.9701 11.5113 11.0808C11.5017 11.1916 11.4678 11.2995 11.4116 11.3982C11.3555 11.4969 11.2782 11.5844 11.1843 11.6556C11.0904 11.7267 10.9818 11.78 10.8649 11.8125C10.7479 11.8449 10.6251 11.8557 10.5035 11.8443C10.3819 11.8329 10.2641 11.7995 10.1569 11.7461C10.0497 11.6927 9.95532 11.6204 9.87935 11.5333L6.00002 7.30167L2.12114 11.5333C2.04471 11.6191 1.95028 11.6903 1.84335 11.7426C1.73642 11.795 1.61911 11.8275 1.49824 11.8382C1.37737 11.849 1.25536 11.8378 1.13928 11.8054C1.0232 11.7729 0.915371 11.7198 0.82206 11.6491C0.728749 11.5785 0.651815 11.4917 0.595727 11.3937C0.53964 11.2958 0.505516 11.1887 0.49534 11.0787C0.485163 10.9687 0.499136 10.8579 0.536447 10.7529C0.573758 10.6478 0.633663 10.5505 0.712682 10.4667L4.80697 6L0.712682 1.53334C0.632201 1.44971 0.570932 1.35229 0.532478 1.24681C0.494023 1.14133 0.479161 1.02993 0.488766 0.919158C0.49837 0.808384 0.532248 0.700474 0.588404 0.601777C0.644561 0.503081 0.721862 0.415591 0.815762 0.344455C0.909662 0.273319 1.01826 0.219973 1.13518 0.187556C1.25209 0.15514 1.37495 0.144306 1.49654 0.155694C1.61813 0.167081 1.73598 0.200459 1.84317 0.253865C1.95035 0.30727 2.04471 0.379625 2.12068 0.466671L6.00002 4.69834L9.87935 0.466671C10.035 0.296988 10.2584 0.190433 10.5004 0.170431C10.7424 0.150429 10.9833 0.218616 11.17 0.360004V0.360004Z" fill="#242424"/>
</svg>
