<svg width="30" height="30" viewBox="0 0 30 30" fill="none" xmlns="http://www.w3.org/2000/svg">
<path d="M27 29.5016H3C2.20435 29.5016 1.44129 29.1855 0.878679 28.6229C0.31607 28.0603 0 27.2972 0 26.5016V10.0751C0.0249353 9.57925 0.170669 9.09702 0.424517 8.67037C0.678366 8.24371 1.03264 7.88556 1.4565 7.62708L13.4565 0.427079C13.9226 0.147615 14.4558 0 14.9992 0C15.5427 0 16.0759 0.147615 16.542 0.427079L28.542 7.62708C29.4435 8.17158 29.997 9.14658 30 10.1996V26.5016C30 27.2972 29.6839 28.0603 29.1213 28.6229C28.5587 29.1855 27.7956 29.5016 27 29.5016ZM3 11.3036V26.5016H27V11.3036L15 19.3031L3 11.3036ZM15 2.99958L4.974 9.01458L15 15.6986L25.0245 9.01458L15 2.99958Z" fill="white"/>
</svg>
