<svg width="55" height="55" viewBox="0 0 55 55" fill="none" xmlns="http://www.w3.org/2000/svg">
<path fill-rule="evenodd" clip-rule="evenodd" d="M27.5 3.4375C21.1182 3.4375 14.9978 5.97265 10.4852 10.4852C5.97265 14.9978 3.4375 21.1182 3.4375 27.5C3.4375 33.8818 5.97265 40.0022 10.4852 44.5148C14.9978 49.0273 21.1182 51.5625 27.5 51.5625C33.8818 51.5625 40.0022 49.0273 44.5148 44.5148C49.0274 40.0022 51.5625 33.8818 51.5625 27.5C51.5625 21.1182 49.0274 14.9978 44.5148 10.4852C40.0022 5.97265 33.8818 3.4375 27.5 3.4375ZM27.5 55C20.2065 55 13.2118 52.1027 8.05457 46.9454C2.89732 41.7882 0 34.7935 0 27.5C0 20.2065 2.89732 13.2118 8.05457 8.05456C13.2118 2.89731 20.2065 0 27.5 0C34.7935 0 41.7882 2.89731 46.9454 8.05456C52.1027 13.2118 55 20.2065 55 27.5C55 34.7935 52.1027 41.7882 46.9454 46.9454C41.7882 52.1027 34.7935 55 27.5 55ZM29.2188 39.5313C29.2188 39.9871 29.0377 40.4243 28.7153 40.7466C28.393 41.0689 27.9558 41.25 27.5 41.25C27.0442 41.25 26.607 41.0689 26.2847 40.7466C25.9623 40.4243 25.7813 39.9871 25.7813 39.5313L25.7813 19.6178L18.4044 26.9981C18.2446 27.1579 18.0549 27.2847 17.8461 27.3712C17.6373 27.4577 17.4135 27.5022 17.1875 27.5022C16.9615 27.5022 16.7377 27.4577 16.5289 27.3712C16.3201 27.2847 16.1304 27.1579 15.9706 26.9981C15.8108 26.8383 15.6841 26.6486 15.5976 26.4398C15.5111 26.231 15.4666 26.0072 15.4666 25.7813C15.4666 25.5553 15.5111 25.3315 15.5976 25.1227C15.6841 24.9139 15.8108 24.7242 15.9706 24.5644L26.2831 14.2519C26.4428 14.0918 26.6325 13.9648 26.8413 13.8782C27.0501 13.7915 27.2739 13.7469 27.5 13.7469C27.7261 13.7469 27.9499 13.7915 28.1587 13.8782C28.3676 13.9648 28.5572 14.0918 28.7169 14.2519L39.0294 24.5644C39.3521 24.8871 39.5334 25.3248 39.5334 25.7813C39.5334 26.2377 39.3521 26.6754 39.0294 26.9981C38.7066 27.3209 38.2689 27.5022 37.8125 27.5022C37.3561 27.5022 36.9184 27.3209 36.5956 26.9981L29.2188 19.6178L29.2188 39.5313Z" fill="#BA6B6C"/>
</svg>
